<?xml version="1.0" encoding="utf-8"?>
<!-- Generator: Adobe Illustrator 27.8.1, SVG Export Plug-In . SVG Version: 6.00 Build 0)  -->
<!DOCTYPE svg PUBLIC "-//W3C//DTD SVG 1.1//EN" "http://www.w3.org/Graphics/SVG/1.1/DTD/svg11.dtd" [
	<!ENTITY ns_extend "http://ns.adobe.com/Extensibility/1.0/">
	<!ENTITY ns_ai "http://ns.adobe.com/AdobeIllustrator/10.0/">
	<!ENTITY ns_graphs "http://ns.adobe.com/Graphs/1.0/">
	<!ENTITY ns_vars "http://ns.adobe.com/Variables/1.0/">
	<!ENTITY ns_imrep "http://ns.adobe.com/ImageReplacement/1.0/">
	<!ENTITY ns_sfw "http://ns.adobe.com/SaveForWeb/1.0/">
	<!ENTITY ns_custom "http://ns.adobe.com/GenericCustomNamespace/1.0/">
	<!ENTITY ns_adobe_xpath "http://ns.adobe.com/XPath/1.0/">
]>
<svg version="1.1" id="Layer_1" xmlns:x="&ns_extend;" xmlns:i="&ns_ai;" xmlns:graph="&ns_graphs;"
	 xmlns="http://www.w3.org/2000/svg" xmlns:xlink="http://www.w3.org/1999/xlink" x="0px" y="0px" viewBox="0 0 2000 2000"
	 style="enable-background:new 0 0 2000 2000;" xml:space="preserve">
<style type="text/css">
	.st0{opacity:0.4;}
</style>
<metadata>
	<sfw  xmlns="&ns_sfw;">
		<slices></slices>
		<sliceSourceBounds  bottomLeftOrigin="true" height="572.9" width="996.5" x="501.5" y="-1281.5"></sliceSourceBounds>
	</sfw>
</metadata>
<g>
	<g>
		<path d="M873.4,974.8l-3.2,1.9l-3.2,1.9l-0.3,0.2c4.9-39.6,27.2-73.8,59-94.7l-0.8,7.7v0.6l0.1,0.6l0.7,1.7l2.3,4.9l0.3,1.1
			l0.1,1.2l0.1,4.9l-0.2,1.1L928,909l-1,1.5l-1.3,2h0l-0.3,1l-0.2,3.4l-1.2,4.3l-0.3,2.1l0,0.8l0.2,5.8l0.3,6.1l-0.1,0.9l-0.2,0.8
			l-4.9,9.6l-1,2.3l-0.7,0.9l-0.8,0.6l-7.1,1.9l-4.2,2.5l-3.2,1.9l-3.2,1.9l-3.2,1.9l-1.1,0.7l-2.1,1.2l-6.3,3.8l-3.2,1.9l-3.2,1.9
			l-3.2,1.9L873.4,974.8z"/>
		<path d="M1021.8,1124.3l1.8,1.5c-8.1,1.6-16.4,2.3-24.9,2.3c-61.5,0-113.2-41.8-128.4-98.5l0.8,0.1l5.7,1l5.7,1l5.7,1l2.3,0.4
			l9.8,1.9l1.5,0.6l1.6,0.9l3,1.7l2.5,1.5l2.5,1.5l2.5,1.5l2.5,1.5l2.5,1.5l2.5,1.5l2.5,1.5l5,3l2.5,1.5l2.5,1.5l2.5,1.5l2.5,1.5
			l2.5,1.6l2.5,1.4l2.5,1.5l2.5,1.6l1.9,1.6l2.4,2.1l2.4,2.1l2.4,2.1l2.5,2.1l2.7,2.4l2.7,2.3l2.7,2.4l0.6,0.5v0l2.2,1.9l3,2.5
			l2.5,2.1l2.5,2.1l2.5,2l2.5,2.1l3.2,2.7l3.3,2.7l3.3,2.7l3.3,2.7l1.4,1.1l1.9,1.5l3.3,2.7l3.3,2.7l3.3,2.7l2.7,2.2l2.7,2.2
			l2.7,2.2L1021.8,1124.3z"/>
		<path d="M1131.6,995.3c0,26.3-7.6,50.8-20.8,71.4h-1.4l0.1-8.1l0.1-5.7l4.4-11.9l0.1-0.8l-0.1-0.7l-0.4-0.6l-1.1-0.8l-0.4-0.5
			l-0.1-0.3l-0.1-0.6l-0.1-0.3l-0.2-0.2l-0.5-0.3l-0.2-0.3l-1-1.9l-0.1-0.6l-0.3-0.6l-1-0.5l-0.4-0.5l-0.7-1.5l-0.4-0.6l-0.1-0.1
			l-0.6-0.2l-0.4-0.1l-0.3-0.3l-0.2-0.4l-0.4-0.3l-0.5-0.1l-0.2-0.2v-0.3l0-0.5l0.1-0.4l0.2-0.3l0.1-0.3l0.1-0.5l-0.2-0.5l-0.6-0.4
			l-0.2-0.4l-0.3-0.2l-0.2-0.2l-0.5-0.7l-0.1-0.2l-0.1-0.2l-0.9-0.8l-0.1-0.2l-0.2-0.4v-0.2l0.1-0.1l0.2-0.6l0.2-0.2l0.1-0.2
			l-0.1-0.4l-0.1-0.3l-0.8-0.6l-0.5-0.6l-0.3-0.5l-0.4-0.5l-0.6-0.3l-1.6-0.6l-0.4,0l-1.3,0.7l-0.5,0.2l-1,0.1l-0.9-0.2l-0.9-0.5
			l-0.9-0.7l-8.6-7.5l-1.2-1.3l-1.9-1.2l-1.3-1.1l-0.1-0.1l-2.7-1.5l-0.8-0.8l-2.8-1.3l-3-1l-3.4,0.4l-1.7-0.2l-0.6-1.4l0.4-0.4
			l0.5-0.4l0.4-0.5l0.2-0.6l-0.1-0.5l-0.4-0.4l-0.5-0.2l-1.3-0.2l-0.4-0.3l0-0.4l0.6-0.3l0.6-0.1l0.5,0l0.4-0.1l0.6-0.4l0.8-0.8
			l0.4-0.5l0.2-0.5v-0.3l-0.3-0.2l-0.1-0.3l0-0.3l0.2-0.6v-0.3l-0.3-0.6l-0.4-0.4l-0.9-0.7l-1.1-1.6l-1-0.9l-0.1-0.5l0-0.6l-0.1-0.7
			l-0.2-0.6l-0.3-0.6l-0.9-1.2l-0.1-0.1l-0.1-0.1l-0.1,0l0,0l-0.2,0l-0.2,0l-0.1,0.1l-0.5,0.5l-0.9,0.1l-0.8-0.2l-0.5-0.5l0.4-0.6
			l1.4-0.8l0.4-0.5l-0.2-0.7l-0.6-0.4l-0.5-0.5l0.1-1l-0.6,0.2h-1.4l-0.5,0.2l-0.8,0.8l-0.5,0.3l-0.5,0.1l-0.2-0.3l0-1.2l-0.1-0.3
			l-0.1-0.3l-1.3-1l-0.5-0.4l-0.4-0.6l-0.3-0.6l-0.2-0.6l-0.1-0.7l-0.2-0.6l-0.4-0.4l-0.5-0.4l-0.4-0.4l-2.6-4.7l0,0l-0.1,0h-0.1
			l-0.8,0.1l-0.8-0.1l-0.6-0.3l-0.6-0.8l0.6-0.3l0.3-0.2l0.2-0.3l0.5-1l0.2-0.9l0.3-0.7l0.7-0.6l0.4-0.4l1.2-1l0.3-0.4v-0.4
			l-0.2-0.3l-0.2-0.3l-0.1-0.4l0.1-0.3l0.4-0.7l0.2-0.3l0.4-1.7l0.1-0.8l-0.2-0.8l-0.4-0.7l-0.6-0.4h-0.6l-0.6,0.5l-0.5-0.4
			l-0.4-0.7l-0.9-2.9l0.3-0.5l1.5-0.3l0.2-0.2l0.2-0.2l0.2-0.2l0.2-0.3l0-1l-0.3-1.4l0.1-0.9l1.1,0.3l1,0.5l0.9,0.2l2,0.2l0.6,0.2
			l0.2-0.1l0.1-0.2l0.1-0.3v-0.4l-0.1-0.2l-0.3-0.5l-0.1-0.6v-0.6l-0.1-0.7l-0.1-0.2l-0.1-0.2l-0.1-0.2l-0.1-0.3l-0.1-0.3l-0.2-0.3
			l-0.2-0.2l-0.3-0.1l-0.4-0.5l0.2-0.6l0.8-0.9l0.1-0.4l-0.1-0.7l0.1-0.4l0.3-0.4l0.3-0.2l0.8-0.1l0.8-0.5l0.1-0.9l-0.1-0.9l0.2-0.7
			l0.7,0l0.5,0.3l0.3,0.1l0.7,0.3l0.5-0.6l0.2-0.8l0.3-0.6l0.1-0.7l-0.2-0.9l-0.1-0.5l0-0.5l0.1-0.4l0.3-0.3l0.2-0.1l0.4,0l0.2-0.1
			l0.1-0.2l-0.1-0.4l0-0.2l0.4-0.6l0.2-0.1l0.4,0.2l0.6,0.4l0.3,0.1l0.4,0l0.9,0.4l0.4-0.1l0.4-0.4l0.8-0.5l0.3,0l0.5,0.2l0.7-0.3
			l0.3-0.1l0.3-0.2l0.2-0.4l-0.6-0.7l0.4-1l0.6-1.1l0.1-0.9l-0.4-0.4l-1.1,0l-0.4-0.3l-0.1-0.6l0.3-0.4l0.4-0.5l0.1-0.3l0.1-0.1
			l-0.2-1l-0.7-0.8l-1.6-1.4l-1.8-3l-0.4-1v-0.3l0.1-0.3l0.2-0.2l0.2-0.2l0.1-0.1l0-0.2l0-0.1l-0.1-0.2l-0.3-0.7l-0.3-0.7l0.1,0h0.2
			l0.8,0.3l0.1-0.5l-0.3-1.4v-0.6l0.1-0.6l0.3-0.6l0.4-0.4l0.6-0.2l2,0.1l0.6-0.1l1.4-0.8l1.1,0.1l0.6-0.1l0.5-0.4l0.4-0.6l0.9-0.6
			l0.4-0.4l0.3-0.6l0.1-0.6l-0.2-0.5l-0.5-0.3l-0.6-0.1l-0.5,0.2l-0.5,0.4l-0.5,0.2l-1.2,0.3l-0.6,0l-0.6-0.2l-0.2-0.2l-0.2-0.2
			l-0.1-0.2l-0.1-0.7l-0.2-0.1l-0.2,0l-0.9-0.3l-0.5,0l-0.5,0.2l-0.6,0.3l-0.6,0.2l-1.8-0.1l-0.9,0.3l-0.3,0l-0.3-0.1l-0.3,0
			l-0.7,0.6l-0.6,0.3l-0.6,0l-0.5-0.3l-0.3-0.1l-1.1,0.3l-0.5-0.2l-0.3-0.5l-0.7-1.8l-1.3-1.9l-0.9-0.8l-0.7-0.2l-0.4-0.2l-1.1-1
			l-1.1-0.4l-0.6-0.2h-0.8l-1,0.5l-0.5,0.2l-0.6,0.4l-0.6,0.2l-0.6-0.1l-0.5-0.5h0l-0.2-0.6l0.2-0.8l0.3-0.7l0.4-0.6l0.1-0.7
			l-0.4-0.7l-0.9-1.2l-0.2-0.8l0.1-1.6l-0.1-0.7l-0.4-0.4l-0.5-0.4l-0.2-0.5l0.7-0.4l-0.5-0.7l-0.2-0.6l-0.1-1.5l-0.1-0.8l-0.3-0.9
			l-0.5-0.6l-0.7-0.1l-1.6,0.6l-0.8,0.1l-0.8-0.4l-0.3-0.4l-0.1-0.3l0-0.3l-0.2-0.5l-0.2-0.3l-0.3-0.3l-0.2-0.3v-0.5l-0.4-0.4
			l-0.5-0.4l-0.1-0.1l-0.4-0.5l0.1-0.5l0.1-0.1l0.3-0.2l0.1-0.1l0.1-0.8l0.3-1.2l0.6-1.3l0.1-0.6l-0.3-0.8l-0.7-1.3l-0.4-0.6
			l-0.5-0.2l-0.4-0.1l-0.3-0.1l-0.3-0.2l-0.2-0.3l-0.4-0.3l-0.4-0.1l-0.9,0l-0.7-0.2l-0.6-0.4l-0.3-0.6l0.1-0.2
			C1087.2,878.9,1131.6,931.9,1131.6,995.3z"/>
	</g>
	<g class="st0">
		<polygon points="1032.1,876 1032.1,876 1032.1,876 		"/>
	</g>
	<g>
		<g>
			<path d="M1498,1017.3c-33,31.7-65.1,64.3-99.1,94.9c-53.3,47.9-112,88.3-177.1,118.8c-144.6,67.7-289.7,66.1-435.1,2.9
				c-94.8-41.3-176.9-101.6-253.1-170.6c-9.9-9-19.6-18.2-30.2-27.9c112-123.1,248.3-191,417.2-188.5c-3.9,3.2-7.9,6.4-11.8,9.6
				c-29.9,24-55.2,51.7-67.8,88.6c-17.8,52.2-6.2,100,24.1,144.5c3.1,4.5,6.3,8.9,8.9,13.8c-33.2-17.1-56.2-43.2-68.4-78.6
				c-11.9-34.6-11.5-70.2-7.4-107.4c-68.9,25.8-130.8,60-184.2,111.1c6.9,7.1,13.4,14,20.1,20.7c67.1,67.3,142.8,121.4,234.1,151.2
				c96.1,31.3,192.6,28.8,289.1,1.5c93.7-26.5,178.1-72.2,257.7-127.2c27.6-19.1,54.3-39.5,81.4-59.3
				C1496.9,1015.9,1497.4,1016.6,1498,1017.3z"/>
		</g>
		<g>
			<path d="M1494.9,954.8c-112.5,123.4-248.9,191-419.2,190.3c4.3-3.5,6.7-5.7,9.3-7.6c27.8-21.7,52.5-46.3,67.1-79
				c24.9-55.9,14.9-108.2-18.4-157.5c-3.1-4.6-6.5-9-9.2-14c33.2,16.9,56.2,42.9,68.4,78.2c12,34.6,11.8,70.3,7.3,107.6
				c69.1-25.9,131.1-60.2,185.1-111.8c-20.3-19.2-39.3-38.5-59.5-56.3c-62.7-55.3-132.8-97.9-213.9-120.6
				c-90.5-25.3-180.6-21.2-270.4,4.1c-94.1,26.6-178.6,72.5-258.5,127.8c-27.4,18.9-53.9,39.2-81.4,58.5c3.2-3.5,6.4-7,9.6-10.5
				c61.4-66.4,128.4-126.3,206.2-173.2c90.3-54.4,187.3-85.4,293.8-81.9c82.1,2.7,158.9,25.6,232.1,61.9
				c86.8,43.1,162.7,101.3,233.5,166.8C1482.5,943,1488.4,948.6,1494.9,954.8z"/>
		</g>
	</g>
	<g>
		<g>
			<path d="M1029.7,1003.7c6.9-3.7,12.9-10.1,13.8-16.9c1.6-12.1-6.1-21.2-16-25.4c-11.8-5-3.9-1.4-49.1-13.3
				c-21.7-5.7-23.1-11-22.6-14.9c-5.9,3.8-7.7,24.7,2.5,31c10.4,6.5,31.3,7.8,57.4,15.2C1038.7,986,1035.3,998.1,1029.7,1003.7z"/>
		</g>
		<g>
			<path d="M1034.3,1007.2c-2-1.2-4.2-2.2-6.5-2.9c-32.7-7.5-35.6-7.3-46.4-10c-29.6-7.2-26-13.2-26.8-15.6
				c-5.5,5.8-5.5,24,4.6,29.5c12.3,6.6,33.8,8.8,61.2,15.6c8.9,2.2,14.1,4.9,18,8c4.3,3.5,5.5,8.6,2.2,12.8
				c-2.9,3.7-10.6,3.1-19.2,1.9c-15.2-2.1-34.5-6.5-39.9-8c-24.3-6.7-26-13.2-26.8-15.6c-5.5,5.8-5.5,24,4.6,29.5
				c8,4.3,15.6,6.8,32.1,7.8c12.1,0.7,34,1.4,44.8-9.8c1-1.1,9.4-7.4,11.1-18.3C1048.8,1022,1043.2,1012.5,1034.3,1007.2z"/>
		</g>
	</g>
	<g id="points_00000057137396357027690870000016276465900824003483_">
		<rect id="_x30__00000096028550857243741480000008447262324359827090_" x="889.2" y="1094.2" width="0" height="0"/>
		<rect id="_x31__00000044141368872578198510000013357779965431820170_" x="1004.8" y="1002.3" width="0" height="0"/>
		<rect id="_x32__00000127740888269424568840000010167185093015086783_" x="1097.2" y="882.6" width="0" height="0"/>
	</g>
	<g id="label_points_00000121995173017444906070000001205382735791697050_">
		<rect id="IQMU_00000160876194900233640960000009624204459979922823_" x="1029.4" y="1077.3" width="0" height="0"/>
		<rect id="IQWA_00000054981176857069729930000004589669662603411878_" x="1042.1" y="1007.1" width="0" height="0"/>
		<rect id="IQMA_00000049911052562884074520000014065451669273174929_" x="1074.5" y="1030.4" width="0" height="0"/>
		<rect id="IQAN_00000043426030458454798210000007292684134449820079_" x="945.9" y="995.3" width="0" height="0"/>
		<rect id="IQSD_00000105418157878685454090000003129012720810468541_" x="992.2" y="957.5" width="0" height="0"/>
		<rect id="IQKI_00000060022938996338302970000008546733388817216173_" x="1004" y="930.8" width="0" height="0"/>
		<rect id="IQBB_00000121278511706674435920000012263722808879842691_" x="1016.5" y="1011.4" width="0" height="0"/>
		<rect id="IQQA_00000134943344512745151210000015844460639801867144_" x="1024.9" y="1025.8" width="0" height="0"/>
		<rect id="IQKA_00000023251030851542808830000016801119262052905139_" x="996.9" y="1010.5" width="0" height="0"/>
	</g>
</g>
</svg>
